<?xml version="1.0" encoding="iso-8859-1"?>
<!-- Generator: Adobe Illustrator 19.1.0, SVG Export Plug-In . SVG Version: 6.00 Build 0)  -->
<svg version="1.1" id="Capa_1" xmlns="http://www.w3.org/2000/svg" xmlns:xlink="http://www.w3.org/1999/xlink" x="0px" y="0px"
	 viewBox="0 0 62.124 62.124" style="enable-background:new 0 0 62.124 62.124;" xml:space="preserve">
<g>
	<path d="M45.164,0H16.96c-2.344,0-4.25,1.906-4.25,4.25v50.636c0,2.344,1.906,4.25,4.25,4.25h0.328c0,0.594,0,1.187,0,1.781
		c0,1.609,2.5,1.611,2.5,0c0-0.594,0-1.187,0-1.781h22.699c0,0.594,0,1.187,0,1.781c0,1.609,2.5,1.611,2.5,0
		c0-0.594,0-1.187,0-1.781h0.177c2.344,0,4.25-1.906,4.25-4.25V4.25C49.414,1.906,47.508,0,45.164,0z M16.96,2.5h28.204
		c0.965,0,1.75,0.785,1.75,1.75v17.651H15.21V4.25C15.21,3.285,15.995,2.5,16.96,2.5z M45.164,56.636H16.96
		c-0.965,0-1.75-0.785-1.75-1.75V24.401h31.704v30.484C46.914,55.851,46.129,56.636,45.164,56.636z"/>
	<path d="M18.516,29.009c0,2.262,0,4.524,0,6.785c0,1.609,2.5,1.611,2.5,0c0-2.262,0-4.524,0-6.785
		C21.016,27.401,18.516,27.398,18.516,29.009z"/>
	<path d="M21.016,17.949c0-2.262,0-4.524,0-6.785c0-1.609-2.5-1.611-2.5,0c0,2.262,0,4.524,0,6.785
		C18.516,19.557,21.016,19.56,21.016,17.949z"/>
</g>
<g>
</g>
<g>
</g>
<g>
</g>
<g>
</g>
<g>
</g>
<g>
</g>
<g>
</g>
<g>
</g>
<g>
</g>
<g>
</g>
<g>
</g>
<g>
</g>
<g>
</g>
<g>
</g>
<g>
</g>
</svg>
